{
  "accessors": [
    {
      "bufferView": 2,
      "componentType": 5126,
      "count": 6239,
      "max": [
        22.53262710571289,
        21.954830169677734,
        14.787239074707031
      ],
      "min": [
        -22.53262710571289,
        -21.943431854248047,
        -15.644579887390137
      ],
      "type": "VEC3"
    },
    {
      "bufferView": 2,
      "byteOffset": 74868,
      "componentType": 5126,
      "count": 6239,
      "max": [
        0.9997755289077759,
        0.9998814463615417,
        0.9990642666816711
      ],
      "min": [
        -0.9999201893806458,
        -0.9990845322608948,
        -0.9975356459617615
      ],
      "type": "VEC3"
    },
    {
      "bufferView": 3,
      "componentType": 5126,
      "count": 6239,
      "max": [
        0.9993442296981812,
        0.9999697804450989,
        0.999997615814209,
        1.0
      ],
      "min": [
        -0.9999991655349731,
        -0.9994181990623474,
        -0.9999812245368958,
        -1.0
      ],
      "type": "VEC4"
    },
    {
      "bufferView": 1,
      "componentType": 5126,
      "count": 6239,
      "max": [
        0.9900000095367432,
        0.9900000095367432
      ],
      "min": [
        0.009999999776482582,
        0.009999990463256836
      ],
      "type": "VEC2"
    },
    {
      "bufferView": 1,
      "byteOffset": 49912,
      "componentType": 5126,
      "count": 6239,
      "max": [
        0.9900000095367432,
        0.9900000095367432
      ],
      "min": [
        0.009999999776482582,
        0.009999990463256836
      ],
      "type": "VEC2"
    },
    {
      "bufferView": 1,
      "byteOffset": 99824,
      "componentType": 5126,
      "count": 6239,
      "max": [
        0.9900000095367432,
        0.9900000095367432
      ],
      "min": [
        0.009999999776482582,
        0.009999990463256836
      ],
      "type": "VEC2"
    },
    {
      "bufferView": 0,
      "componentType": 5125,
      "count": 28407,
      "type": "SCALAR"
    }
  ],
  "asset": {
    "extras": {
      "author": "idmental.id (https://sketchfab.com/idmental.id)",
      "license": "CC-BY-4.0 (http://creativecommons.org/licenses/by/4.0/)",
      "source": "https://sketchfab.com/3d-models/cyberpunk-hood-06d288816a824e7a947a93e238c4dd64",
      "title": "Cyberpunk Hood"
    },
    "generator": "Sketchfab-11.49.0",
    "version": "2.0"
  },
  "bufferViews": [
    {
      "buffer": 0,
      "byteLength": 113628,
      "name": "floatBufferViews",
      "target": 34963
    },
    {
      "buffer": 0,
      "byteLength": 149736,
      "byteOffset": 113628,
      "byteStride": 8,
      "name": "floatBufferViews",
      "target": 34962
    },
    {
      "buffer": 0,
      "byteLength": 149736,
      "byteOffset": 263364,
      "byteStride": 12,
      "name": "floatBufferViews",
      "target": 34962
    },
    {
      "buffer": 0,
      "byteLength": 99824,
      "byteOffset": 413100,
      "byteStride": 16,
      "name": "floatBufferViews",
      "target": 34962
    }
  ],
  "buffers": [
    {
      "byteLength": 512924,
      "uri": "scene.bin"
    }
  ],
  "images": [
    {
      "uri": "textures/Upper1_baseColor.jpeg"
    },
    {
      "uri": "textures/Upper1_metallicRoughness.png"
    },
    {
      "uri": "textures/Upper1_normal.png"
    }
  ],
  "materials": [
    {
      "doubleSided": true,
      "name": "Upper1",
      "normalTexture": {
        "index": 2
      },
      "pbrMetallicRoughness": {
        "baseColorTexture": {
          "index": 0
        },
        "metallicFactor": 0.6450213127170034,
        "metallicRoughnessTexture": {
          "index": 1
        }
      }
    }
  ],
  "meshes": [
    {
      "name": "kapushon_Upper1_0",
      "primitives": [
        {
          "attributes": {
            "NORMAL": 1,
            "POSITION": 0,
            "TANGENT": 2,
            "TEXCOORD_0": 3,
            "TEXCOORD_1": 4,
            "TEXCOORD_2": 5
          },
          "indices": 6,
          "material": 0,
          "mode": 4
        }
      ]
    }
  ],
  "nodes": [
    {
      "children": [
        1
      ],
      "matrix": [
        1.0,
        0.0,
        0.0,
        0.0,
        0.0,
        2.220446049250313e-16,
        -1.0,
        0.0,
        0.0,
        1.0,
        2.220446049250313e-16,
        0.0,
        0.0,
        0.0,
        0.0,
        1.0
      ],
      "name": "Sketchfab_model"
    },
    {
      "children": [
        2
      ],
      "matrix": [
        0.009999999776482582,
        0.0,
        0.0,
        0.0,
        0.0,
        0.0,
        0.009999999776482582,
        0.0,
        0.0,
        -0.009999999776482582,
        0.0,
        0.0,
        0.0,
        0.0,
        0.0,
        1.0
      ],
      "name": "KAPUSHON.fbx"
    },
    {
      "children": [
        3,
        5
      ],
      "name": "RootNode"
    },
    {
      "children": [
        4
      ],
      "matrix": [
        0.15756378712175823,
        -0.22632303525161296,
        -0.9612239784266445,
        0.0,
        0.03661026675492729,
        0.9740523002973183,
        -0.22334234854508878,
        0.0,
        0.9868299455103611,
        -4.163336342344337e-17,
        0.16176111598285192,
        0.0,
        -23.084386825561523,
        172.9801025390625,
        118.8999252319336,
        1.0
      ],
      "name": "CINEMA_4D_Editor"
    },
    {
      "name": "Object_4"
    },
    {
      "children": [
        6
      ],
      "matrix": [
        1.0,
        0.0,
        0.0,
        0.0,
        0.0,
        1.0,
        0.0,
        0.0,
        0.0,
        0.0,
        1.0,
        0.0,
        -0.19205215573310852,
        160.81993103027344,
        -2.542419195175171,
        1.0
      ],
      "name": "kapushon"
    },
    {
      "mesh": 0,
      "name": "kapushon_Upper1_0"
    }
  ],
  "samplers": [
    {
      "magFilter": 9729,
      "minFilter": 9987,
      "wrapS": 10497,
      "wrapT": 10497
    }
  ],
  "scene": 0,
  "scenes": [
    {
      "name": "Sketchfab_Scene",
      "nodes": [
        0
      ]
    }
  ],
  "textures": [
    {
      "sampler": 0,
      "source": 0
    },
    {
      "sampler": 0,
      "source": 1
    },
    {
      "sampler": 0,
      "source": 2
    }
  ]
}
